<svg xmlns="http://www.w3.org/2000/svg" width="220" height="260" viewBox="0 0 220 260"
     shape-rendering="crispEdges" image-rendering="pixelated">

  <!-- Ground shadow -->
  <ellipse cx="110" cy="254" rx="95" ry="8" fill="#000000" fill-opacity="0.18"/>

  <!-- ── Turrets (behind main wall) ── -->
  <!-- Left turret body: warm cream stone -->
  <rect x="14" y="72" width="30" height="184" fill="#c8b99a"/>
  <!-- Left turret shadow right -->
  <rect x="38" y="72" width="6"  height="184" fill="#a89878"/>
  <!-- Left turret highlight left -->
  <rect x="14" y="72" width="3"  height="184" fill="#e0d4b8"/>
  <!-- Left turret stone block lines every 22px -->
  <rect x="14" y="94"  width="30" height="1" fill="#a89878"/>
  <rect x="14" y="116" width="30" height="1" fill="#a89878"/>
  <rect x="14" y="138" width="30" height="1" fill="#a89878"/>
  <rect x="14" y="160" width="30" height="1" fill="#a89878"/>
  <rect x="14" y="182" width="30" height="1" fill="#a89878"/>
  <rect x="14" y="204" width="30" height="1" fill="#a89878"/>
  <rect x="14" y="226" width="30" height="1" fill="#a89878"/>
  <rect x="14" y="248" width="30" height="1" fill="#a89878"/>
  <!-- Left turret cone roof: rich purple -->
  <polygon points="29,36 14,72 44,72" fill="#5b21b6"/>
  <polygon points="29,36 14,72 22,72" fill="#7c3aed"/>
  <!-- Left battlements: 3 merlons -->
  <rect x="14" y="62" width="7" height="12" fill="#c8b99a"/>
  <rect x="23" y="62" width="7" height="12" fill="#c8b99a"/>
  <rect x="32" y="62" width="7" height="12" fill="#c8b99a"/>
  <!-- Left turret vertical joints (offset rows) -->
  <rect x="22" y="72"  width="1" height="22" fill="#a89878"/>
  <rect x="36" y="72"  width="1" height="22" fill="#a89878"/>
  <rect x="16" y="94"  width="1" height="22" fill="#a89878"/>
  <rect x="30" y="94"  width="1" height="22" fill="#a89878"/>

  <!-- Right turret body -->
  <rect x="176" y="72" width="30" height="184" fill="#c8b99a"/>
  <!-- Right turret shadow right -->
  <rect x="200" y="72" width="6"  height="184" fill="#a89878"/>
  <!-- Right turret highlight left -->
  <rect x="176" y="72" width="3"  height="184" fill="#e0d4b8"/>
  <!-- Right turret stone lines -->
  <rect x="176" y="94"  width="30" height="1" fill="#a89878"/>
  <rect x="176" y="116" width="30" height="1" fill="#a89878"/>
  <rect x="176" y="138" width="30" height="1" fill="#a89878"/>
  <rect x="176" y="160" width="30" height="1" fill="#a89878"/>
  <rect x="176" y="182" width="30" height="1" fill="#a89878"/>
  <rect x="176" y="204" width="30" height="1" fill="#a89878"/>
  <rect x="176" y="226" width="30" height="1" fill="#a89878"/>
  <rect x="176" y="248" width="30" height="1" fill="#a89878"/>
  <!-- Right turret cone roof -->
  <polygon points="191,36 176,72 206,72" fill="#5b21b6"/>
  <polygon points="191,36 176,72 184,72" fill="#7c3aed"/>
  <!-- Right battlements -->
  <rect x="176" y="62" width="7" height="12" fill="#c8b99a"/>
  <rect x="185" y="62" width="7" height="12" fill="#c8b99a"/>
  <rect x="194" y="62" width="7" height="12" fill="#c8b99a"/>
  <!-- Right turret vertical joints -->
  <rect x="184" y="72"  width="1" height="22" fill="#a89878"/>
  <rect x="198" y="72"  width="1" height="22" fill="#a89878"/>
  <rect x="178" y="94"  width="1" height="22" fill="#a89878"/>
  <rect x="192" y="94"  width="1" height="22" fill="#a89878"/>

  <!-- ── Main stone wall ── -->
  <rect x="20" y="80" width="180" height="174" fill="#c8b99a"/>
  <!-- Wall shadow right -->
  <rect x="190" y="80" width="10" height="174" fill="#a89878"/>
  <!-- Wall highlight left -->
  <rect x="20" y="80" width="4"  height="174" fill="#e0d4b8"/>
  <!-- Horizontal stone block lines every 22px -->
  <rect x="20" y="102" width="180" height="1" fill="#a89878"/>
  <rect x="20" y="124" width="180" height="1" fill="#a89878"/>
  <rect x="20" y="146" width="180" height="1" fill="#a89878"/>
  <rect x="20" y="168" width="180" height="1" fill="#a89878"/>
  <rect x="20" y="190" width="180" height="1" fill="#a89878"/>
  <rect x="20" y="212" width="180" height="1" fill="#a89878"/>
  <rect x="20" y="234" width="180" height="1" fill="#a89878"/>
  <!-- Vertical joints row 1 -->
  <rect x="64"  y="80"  width="1" height="22" fill="#a89878"/>
  <rect x="114" y="80"  width="1" height="22" fill="#a89878"/>
  <rect x="164" y="80"  width="1" height="22" fill="#a89878"/>
  <!-- Vertical joints row 2 (offset) -->
  <rect x="42"  y="102" width="1" height="22" fill="#a89878"/>
  <rect x="92"  y="102" width="1" height="22" fill="#a89878"/>
  <rect x="142" y="102" width="1" height="22" fill="#a89878"/>
  <rect x="192" y="102" width="1" height="22" fill="#a89878"/>
  <!-- Alternating joint rows -->
  <rect x="64"  y="124" width="1" height="22" fill="#a89878"/>
  <rect x="114" y="124" width="1" height="22" fill="#a89878"/>
  <rect x="164" y="124" width="1" height="22" fill="#a89878"/>
  <rect x="42"  y="146" width="1" height="22" fill="#a89878"/>
  <rect x="92"  y="146" width="1" height="22" fill="#a89878"/>
  <rect x="142" y="146" width="1" height="22" fill="#a89878"/>
  <rect x="192" y="146" width="1" height="22" fill="#a89878"/>
  <rect x="64"  y="168" width="1" height="22" fill="#a89878"/>
  <rect x="114" y="168" width="1" height="22" fill="#a89878"/>
  <rect x="164" y="168" width="1" height="22" fill="#a89878"/>
  <rect x="42"  y="190" width="1" height="22" fill="#a89878"/>
  <rect x="92"  y="190" width="1" height="22" fill="#a89878"/>
  <rect x="142" y="190" width="1" height="22" fill="#a89878"/>
  <rect x="192" y="190" width="1" height="22" fill="#a89878"/>

  <!-- ── Main pointed roof ── -->
  <!-- Roof base: deep purple -->
  <polygon points="110,8 10,80 210,80" fill="#5b21b6"/>
  <!-- Tile rows on roof — chevron bands of lighter/darker purple -->
  <polygon points="110,8 46,58 174,58" fill="#6d28d9"/>
  <polygon points="110,8 58,66 162,66" fill="#7c3aed"/>
  <polygon points="110,8 70,72 150,72" fill="#6d28d9"/>
  <!-- Roof highlight ridge -->
  <polygon points="110,8 104,50 116,50" fill="#8b5cf6"/>
  <!-- Roof shadow underside strips -->
  <polygon points="110,8 10,80 30,80"  fill="#4c1d95"/>
  <polygon points="110,8 190,80 210,80" fill="#4c1d95"/>

  <!-- ── Gold banner between turrets ── -->
  <rect x="44" y="66" width="132" height="14" fill="#fbbf24"/>
  <rect x="44" y="66" width="132" height="2"  fill="#fde68a"/>
  <rect x="104" y="60" width="12" height="8"  fill="#fbbf24"/>
  <!-- L rune on banner -->
  <rect x="107" y="68" width="3" height="9"  fill="#1a0a2e"/>
  <rect x="107" y="75" width="7" height="2"  fill="#1a0a2e"/>

  <!-- ── Hanging lanterns ── -->
  <!-- Left lantern -->
  <rect x="52" y="164" width="2"  height="8"  fill="#374151"/>
  <rect x="48" y="172" width="10" height="12" fill="#fbbf24"/>
  <rect x="50" y="170" width="6"  height="14" fill="#fbbf24"/>
  <rect x="51" y="173" width="4"  height="10" fill="#fef3c7"/>
  <!-- Right lantern -->
  <rect x="166" y="164" width="2"  height="8"  fill="#374151"/>
  <rect x="162" y="172" width="10" height="12" fill="#fbbf24"/>
  <rect x="164" y="170" width="6"  height="14" fill="#fbbf24"/>
  <rect x="165" y="173" width="4"  height="10" fill="#fef3c7"/>

  <!-- ── Left stained glass window ── -->
  <!-- Stone arch frame -->
  <rect x="42" y="96"  width="36" height="52" fill="#4c1d95"/>
  <rect x="58" y="92"  width="20" height="8"  fill="#4c1d95"/>
  <rect x="52" y="94"  width="16" height="4"  fill="#4c1d95"/>
  <!-- Blue-purple stained glass -->
  <rect x="44" y="98"  width="32" height="48" fill="#818cf8"/>
  <rect x="56" y="94"  width="16" height="8"  fill="#818cf8"/>
  <!-- Inner glow lighter center -->
  <rect x="48" y="100" width="24" height="40" fill="#a5b4fc"/>
  <!-- Pane dividers -->
  <rect x="59" y="92"  width="2"  height="58" fill="#4c1d95"/>
  <rect x="44" y="120" width="32" height="2"  fill="#4c1d95"/>

  <!-- ── Right stained glass window ── -->
  <rect x="142" y="96"  width="36" height="52" fill="#4c1d95"/>
  <rect x="158" y="92"  width="20" height="8"  fill="#4c1d95"/>
  <rect x="152" y="94"  width="16" height="4"  fill="#4c1d95"/>
  <rect x="144" y="98"  width="32" height="48" fill="#818cf8"/>
  <rect x="156" y="94"  width="16" height="8"  fill="#818cf8"/>
  <rect x="148" y="100" width="24" height="40" fill="#a5b4fc"/>
  <rect x="159" y="92"  width="2"  height="58" fill="#4c1d95"/>
  <rect x="144" y="120" width="32" height="2"  fill="#4c1d95"/>

  <!-- ── Arched doorway ── -->
  <!-- Stone arch frame: dark purple-black -->
  <rect x="82" y="172" width="56" height="82" fill="#2e1a4a"/>
  <rect x="86" y="160" width="48" height="18" fill="#2e1a4a"/>
  <rect x="90" y="154" width="40" height="8"  fill="#2e1a4a"/>
  <rect x="96" y="150" width="28" height="6"  fill="#2e1a4a"/>
  <!-- Wooden door planks left -->
  <rect x="84" y="174" width="24" height="78" fill="#8b4513"/>
  <!-- Wooden door planks right -->
  <rect x="110" y="174" width="24" height="78" fill="#8b4513"/>
  <!-- Door plank lines -->
  <rect x="84" y="195" width="50" height="2"  fill="#5a2e0a"/>
  <rect x="84" y="215" width="50" height="2"  fill="#5a2e0a"/>
  <rect x="84" y="235" width="50" height="2"  fill="#5a2e0a"/>
  <!-- Iron hinges -->
  <rect x="84"  y="178" width="10" height="4" fill="#374151"/>
  <rect x="134" y="178" width="10" height="4" fill="#374151"/>
  <rect x="84"  y="228" width="10" height="4" fill="#374151"/>
  <rect x="134" y="228" width="10" height="4" fill="#374151"/>
  <!-- Round gold door handle -->
  <rect x="107" y="222" width="5" height="5" fill="#fbbf24"/>
  <rect x="108" y="221" width="3" height="7" fill="#fbbf24"/>

  <!-- ── Ivy along base ── -->
  <rect x="20" y="244" width="8"  height="6" fill="#166534"/>
  <rect x="30" y="246" width="6"  height="4" fill="#166534"/>
  <rect x="40" y="244" width="8"  height="6" fill="#166534"/>
  <rect x="52" y="246" width="6"  height="4" fill="#166534"/>
  <rect x="160" y="244" width="8"  height="6" fill="#166534"/>
  <rect x="172" y="246" width="6"  height="4" fill="#166534"/>
  <rect x="182" y="244" width="8"  height="6" fill="#166534"/>
  <rect x="194" y="246" width="6"  height="4" fill="#166534"/>

</svg>
