<svg xmlns="http://www.w3.org/2000/svg" width="64" height="64" viewBox="0 0 64 64"
     shape-rendering="crispEdges" image-rendering="pixelated">
  <!-- Base green fill -->
  <rect x="0"  y="0"  width="64" height="64" fill="#3a7d44"/>

  <!-- Dark patches -->
  <rect x="0"  y="0"  width="8"  height="8"  fill="#2d6a3a"/>
  <rect x="16" y="4"  width="8"  height="8"  fill="#2d6a3a"/>
  <rect x="36" y="0"  width="8"  height="8"  fill="#2d6a3a"/>
  <rect x="52" y="8"  width="8"  height="8"  fill="#2d6a3a"/>
  <rect x="4"  y="20" width="8"  height="8"  fill="#2d6a3a"/>
  <rect x="28" y="16" width="8"  height="8"  fill="#2d6a3a"/>
  <rect x="48" y="24" width="8"  height="8"  fill="#2d6a3a"/>
  <rect x="8"  y="36" width="4"  height="4"  fill="#2d6a3a"/>
  <rect x="24" y="40" width="4"  height="4"  fill="#2d6a3a"/>
  <rect x="44" y="36" width="4"  height="4"  fill="#2d6a3a"/>
  <rect x="56" y="44" width="4"  height="4"  fill="#2d6a3a"/>
  <rect x="0"  y="48" width="8"  height="8"  fill="#2d6a3a"/>
  <rect x="20" y="52" width="8"  height="8"  fill="#2d6a3a"/>
  <rect x="40" y="56" width="8"  height="8"  fill="#2d6a3a"/>

  <!-- Light grass blades (2×6 and 2×8 vertical) -->
  <rect x="4"  y="10" width="2" height="8"  fill="#4ead5b"/>
  <rect x="12" y="2"  width="2" height="6"  fill="#4ead5b"/>
  <rect x="22" y="8"  width="2" height="8"  fill="#4ead5b"/>
  <rect x="30" y="0"  width="2" height="6"  fill="#4ead5b"/>
  <rect x="42" y="6"  width="2" height="8"  fill="#4ead5b"/>
  <rect x="56" y="2"  width="2" height="6"  fill="#4ead5b"/>
  <rect x="6"  y="28" width="2" height="8"  fill="#4ead5b"/>
  <rect x="18" y="24" width="2" height="6"  fill="#4ead5b"/>
  <rect x="34" y="28" width="2" height="8"  fill="#4ead5b"/>
  <rect x="50" y="30" width="2" height="6"  fill="#4ead5b"/>
  <rect x="10" y="46" width="2" height="8"  fill="#4ead5b"/>
  <rect x="26" y="50" width="2" height="6"  fill="#4ead5b"/>
  <rect x="46" y="44" width="2" height="8"  fill="#4ead5b"/>
  <rect x="60" y="52" width="2" height="6"  fill="#4ead5b"/>

  <!-- Stones (3×2 rects) -->
  <rect x="14" y="14" width="3" height="2" fill="#8b7355"/>
  <rect x="38" y="22" width="3" height="2" fill="#8b7355"/>
  <rect x="2"  y="42" width="3" height="2" fill="#8b7355"/>
  <rect x="54" y="18" width="3" height="2" fill="#8b7355"/>
  <rect x="30" y="54" width="3" height="2" fill="#8b7355"/>
  <rect x="20" y="34" width="3" height="2" fill="#8b7355"/>
  <rect x="58" y="38" width="3" height="2" fill="#8b7355"/>
</svg>
